<svg xmlns="http://www.w3.org/2000/svg" xmlns:xlink="http://www.w3.org/1999/xlink" width="75" height="48.293" viewBox="0 0 75 48.293">
  <defs>
    <linearGradient id="linear-gradient" x2="1" y2="1" gradientUnits="objectBoundingBox">
      <stop offset="0" stop-color="#fe3448"/>
      <stop offset="1" stop-color="#e82399"/>
    </linearGradient>
  </defs>
  <path id="soyez-courtois" d="M31.969-45l-5.625,5.625H24.551l-7.172,6.738-.809.762H11.25v15h3.609l.82.82,6.094,6.094.82.82,1.992,1.992,2.5,2.5,2.742-2.73,1.992-1.992,1.992,1.992L36.27-4.922l3.5-3.516,1.992-1.992,1.992,1.992L44.895-7.3l5.742-5.742v-.211L39.855-24.023,31.9-16.687l-2.109,1.945-1.9-2.145-7.5-8.437-1.816-2.039,1.992-1.875,15.937-15L37.313-45H50.754l.8.715L59.191-37.5H75v30H63.75V-9.375H54.9L46.863-1.336,44.871.656,42.879-1.336,41.742-2.473l-3.5,3.5L36.246,3.023,34.254,1.031,31.793-1.43,29.063,1.3,27.07,3.293,25.078,1.3,20.625-3.164,18.633-5.156l-.82-.82L12.539-11.25H11.25V-7.5H0v-30H14.332L21.5-44.238,22.313-45h9.656ZM63.75-15V-31.875H57.059l-.8-.715-7.641-6.785h-9.07L26.414-27.012,30.2-22.758l10.078-9.3,2.063-1.91,3.82,4.137L44.1-27.926,44-27.832,56.7-15.141l.141.141ZM7.5-13.125A1.875,1.875,0,0,0,5.625-15,1.875,1.875,0,0,0,3.75-13.125,1.875,1.875,0,0,0,5.625-11.25,1.875,1.875,0,0,0,7.5-13.125ZM69.375-11.25a1.875,1.875,0,0,0,1.875-1.875A1.875,1.875,0,0,0,69.375-15,1.875,1.875,0,0,0,67.5-13.125,1.875,1.875,0,0,0,69.375-11.25Z" transform="translate(0 45)" fill="url(#linear-gradient)"/>
</svg>
