<svg xmlns="http://www.w3.org/2000/svg" xmlns:xlink="http://www.w3.org/1999/xlink" width="41.25" height="60" viewBox="0 0 41.25 60">
  <defs>
    <linearGradient id="linear-gradient" x2="1" y2="1" gradientUnits="objectBoundingBox">
      <stop offset="0" stop-color="#fe3448"/>
      <stop offset="1" stop-color="#e82399"/>
    </linearGradient>
  </defs>
  <path id="parlez-clairement" d="M16.875-46.875h11.25V-22.5A5.626,5.626,0,0,1,22.5-16.875,5.626,5.626,0,0,1,16.875-22.5ZM11.25-52.5v30A11.253,11.253,0,0,0,22.5-11.25,11.253,11.253,0,0,0,33.75-22.5v-30H11.25ZM7.5-27.187V-30H1.875v7.5A20.633,20.633,0,0,0,19.688-2.063V1.875H11.25V7.5h22.5V1.875H25.313V-2.063A20.633,20.633,0,0,0,43.125-22.5V-30H37.5v7.5a15,15,0,0,1-15,15,15,15,0,0,1-15-15Z" transform="translate(-1.875 52.5)" fill="url(#linear-gradient)"/>
</svg>
